<svg width="40" height="40" viewBox="0 0 40 40" fill="none" xmlns="http://www.w3.org/2000/svg">
<g id="Icon - Command">
<circle id="Icon Bg" cx="20" cy="20" r="20" fill="#F9F7F7"/>
<g id="Icon">
<path id="Vector" d="M24.6039 7.54423C23.7499 7.77304 23.0219 8.3317 22.5798 9.09732C22.1378 9.86293 22.018 10.7728 22.2468 11.6267L25.6978 24.5057C25.9266 25.3597 26.4852 26.0877 27.2508 26.5297C28.0165 26.9718 28.9263 27.0916 29.7802 26.8627C30.6342 26.6339 31.3622 26.0753 31.8043 25.3097C32.2463 24.544 32.3661 23.6342 32.1373 22.7803C31.9085 21.9263 31.3498 21.1983 30.5842 20.7562C29.8186 20.3142 28.9087 20.1944 28.0548 20.4232L15.1758 23.8742C14.3218 24.103 13.5938 24.6616 13.1517 25.4272C12.7097 26.1929 12.5899 27.1027 12.8187 27.9566C13.0476 28.8106 13.6062 29.5386 14.3718 29.9807C15.1374 30.4227 16.0473 30.5425 16.9012 30.3137C17.7552 30.0849 18.4832 29.5262 18.9253 28.7606C19.3673 27.995 19.4871 27.0851 19.2583 26.2312L15.8073 13.3522C15.5785 12.4982 15.0199 11.7702 14.2542 11.3282C13.4886 10.8861 12.5788 10.7663 11.7248 10.9951C10.8709 11.224 10.1429 11.7826 9.70083 12.5482C9.2588 13.3138 9.13902 14.2237 9.36783 15.0776C9.59664 15.9316 10.1553 16.6596 10.9209 17.1017C11.6865 17.5437 12.5964 17.6635 13.4503 17.4347L26.3293 13.9837C27.1833 13.7549 27.9113 13.1963 28.3533 12.4306C28.7954 11.665 28.9152 10.7552 28.6863 9.90125C28.4575 9.04732 27.8989 8.31926 27.1333 7.87723C26.3676 7.4352 25.4578 7.31542 24.6039 7.54423Z" stroke="#F33D01" stroke-width="2" stroke-linecap="round" stroke-linejoin="round"/>
</g>
</g>
</svg>
